<svg height="512pt" viewBox="0 -16 512 512" width="512pt" xmlns="http://www.w3.org/2000/svg"><path d="m477.464844 326.101562-173.550782 43.6875c-1.488281-5.109374-4.238281-9.933593-8.25-13.945312l-55.289062-55.289062c-6.855469-6.855469-15.972656-10.628907-25.667969-10.628907h-110.289062c-2.078125-19.015625-18.238281-33.859375-37.792969-33.859375h-28.601562c-20.96875 0-38.023438 17.054688-38.023438 38.023438v133.566406c0 20.972656 17.054688 38.035156 38.023438 38.035156h28.601562c20.957031 0 38.023438-17.0625 38.023438-38.035156v-13.320312c55.445312 9.574218 43.511718 6.085937 126.15625 46.519531 13.234374 6.476562 26.316406 19.011719 53.761718 19.011719 14.332032 0 28.664063-3.949219 41.222656-11.855469.503907-.253907 171.953126-87.164063 172.429688-87.46875 8.628906-5.488281 13.78125-14.875 13.78125-25.105469 0-20.53125-20.117188-32.980469-34.535156-29.335938zm-387.875 101.554688c0 12.671875-10.308594 22.980469-22.964844 22.980469h-28.601562c-12.65625 0-22.964844-10.308594-22.964844-22.980469v-133.566406c0-12.667969 10.308594-22.96875 22.964844-22.96875h28.601562c11.230469 0 20.617188 8.121094 22.585938 18.804687.558593 3.011719.378906-6.425781.378906 137.730469zm400.820312-59.996094c-.503906.253906-171.910156 87.144532-172.386718 87.445313-20.453126 13.015625-46.824219 12.945312-67.183594-.179688-4.410156-2.839843-8.925782-5.398437-13.417969-7.597656-84.027344-41.109375-72.082031-37.792969-132.773437-48.273437v-94.074219h110.058593c5.671875 0 11.011719 2.207031 15.027344 6.222656l55.28125 55.28125c10.890625 10.886719 3.566406 29.160156-11.515625 29.160156-4.496094 0-8.730469-1.757812-11.921875-4.9375l-49.800781-49.820312c-2.941406-2.941407-7.710938-2.941407-10.652344 0-2.941406 2.941406-2.941406 7.710937 0 10.652343l49.8125 49.816407c18.171875 18.117187 48.929688 8.421875 53.699219-16.222657l176.046875-44.3125c15.203125-1.640624 22.441406 18.351563 9.726562 26.839844zm0 0"/><path d="m62.417969 386.617188c-3.816407-1.640626-8.246094.125-9.890625 3.941406-1.644532 3.820312.121094 8.25 3.941406 9.890625 10.429688 4.488281 7.242188 20.171875-4.144531 20.171875-7.105469 0-12.164063-6.9375-10.019531-13.691406 3.246093-10.222657-15.546876-17.03125-15.546876 3.183593 0 14.09375 11.46875 25.5625 25.566407 25.5625 14.097656 0 25.566406-11.46875 25.566406-25.5625 0-10.230469-6.074219-19.453125-15.472656-23.496093zm0 0"/><path d="m446.421875 135.691406c.929687 3.332032 3.953125 5.511719 7.25 5.511719 4.988281 0 8.589844-4.761719 7.257813-9.550781-23.308594-83.683594-125.164063-113.625-190.308594-57.933594-3.160156 2.699219-3.53125 7.453125-.832032 10.613281 2.703126 3.160157 7.453126 3.535157 10.617188.832031 4.074219-3.484374 8.472656-6.683593 13.074219-9.515624 58.105469-35.730469 134.53125-6.078126 152.941406 60.042968zm0 0"/><path d="m297.992188 270.285156c9.15625 4.210938 15.234374-9.566406 6.292968-13.679687-18.445312-8.480469-33.84375-22.144531-44.527344-39.519531-9.972656-16.222657-15.246093-34.808594-15.246093-53.75-.003907-20.476563 5.992187-40.277344 17.335937-57.265626 2.308594-3.457031 1.375-8.132812-2.082031-10.441406s-8.132813-1.378906-10.441406 2.082032c-40.28125 60.332031-16.945313 142.40625 48.667969 172.574218zm0 0"/><path d="m457.714844 155.890625c-.007813 0-.015625 0-.019532 0-4.152343 0-7.519531 3.359375-7.53125 7.507813-.171874 64.335937-57.746093 111.21875-119.109374 101.347656-4.105469-.664063-7.96875 2.132812-8.628907 6.238281-.660156 4.105469 2.132813 7.96875 6.238281 8.628906 70.4375 11.332031 136.359376-42.523437 136.558594-116.171875.011719-4.160156-3.351562-7.539062-7.507812-7.550781zm0 0"/><path d="m320.902344 201.492188 19.921875 34.507812c1.347656 2.328125 3.832031 3.761719 6.519531 3.761719h39.84375c2.691406 0 5.175781-1.433594 6.519531-3.761719l19.921875-34.507812c1.34375-2.328126 1.34375-5.199219 0-7.527344l-19.921875-34.503906c-1.34375-2.332032-3.828125-3.765626-6.519531-3.765626h-26.8125l13.394531-23.199218c1.34375-2.328125 1.34375-5.199219 0-7.527344l-19.921875-34.507812c-1.34375-2.328126-3.828125-3.761719-6.519531-3.761719h-39.839844c-2.691406 0-5.175781 1.433593-6.519531 3.761719l-19.921875 34.507812c-1.347656 2.328125-1.347656 5.199219 0 7.527344l19.921875 34.503906c1.34375 2.332031 3.828125 3.765625 6.519531 3.765625h26.8125l-13.398437 23.199219c-1.34375 2.328125-1.34375 5.199218 0 7.527344zm61.9375-30.738282 15.578125 26.976563-15.578125 26.976562h-31.148438l-15.574218-26.976562 15.574218-26.976563zm-71.007813-15.046875-15.574219-26.976562 15.574219-26.976563h31.148438l15.578125 26.976563-15.578125 26.976562zm0 0"/><path d="m347.335938 37.84375c4.160156 0 7.527343-3.371094 7.527343-7.53125v-22.785156c0-4.15625-3.367187-7.527344-7.527343-7.527344-4.160157 0-7.527344 3.371094-7.527344 7.527344v22.785156c0 4.160156 3.371094 7.53125 7.527344 7.53125zm0 0"/><path d="m273.285156 51.664062c1.394532 2.417969 3.921875 3.765626 6.527344 3.765626 5.738281 0 9.421875-6.253907 6.511719-11.292969l-11.394531-19.734375c-2.078126-3.597656-6.683594-4.832032-10.285157-2.753906-3.597656 2.078124-4.832031 6.683593-2.753906 10.285156zm0 0"/><path d="m206.613281 92.027344 19.734375 11.390625c3.605469 2.082031 8.207032.84375 10.28125-2.753907 2.082032-3.601562.847656-8.207031-2.753906-10.285156l-19.734375-11.390625c-3.601563-2.082031-8.207031-.847656-10.28125 2.753907-2.082031 3.601562-.847656 8.207031 2.753906 10.285156zm0 0"/><path d="m188.789062 171.707031h22.785157c4.160156 0 7.527343-3.371093 7.527343-7.527343s-3.367187-7.527344-7.527343-7.527344h-22.785157c-4.160156 0-7.53125 3.371094-7.53125 7.527344s3.371094 7.527343 7.53125 7.527343zm0 0"/><path d="m225.398438 225.195312-19.734376 11.390626c-3.601562 2.082031-4.832031 6.683593-2.753906 10.285156 2.078125 3.601562 6.679688 4.835937 10.28125 2.753906l19.734375-11.390625c3.601563-2.078125 4.832031-6.683594 2.753907-10.285156-2.078126-3.601563-6.683594-4.832031-10.28125-2.753907zm0 0"/><path d="m271.636719 277.640625-11.390625 19.734375c-2.910156 5.042969.773437 11.292969 6.511718 11.292969 2.601563 0 5.132813-1.347657 6.527344-3.765625l11.394532-19.730469c2.078124-3.601563.84375-8.207031-2.757813-10.285156-3.597656-2.078125-8.203125-.847657-10.285156 2.753906zm0 0"/><path d="m337.910156 299.941406v22.789063c0 4.15625 3.371094 7.527343 7.527344 7.527343 4.160156 0 7.53125-3.371093 7.53125-7.527343v-22.789063c0-4.15625-3.371094-7.527344-7.53125-7.527344-4.15625 0-7.527344 3.371094-7.527344 7.527344zm0 0"/><path d="m409.207031 275.835938c-3.601562 2.078124-4.832031 6.683593-2.753906 10.285156l11.394531 19.734375c1.394532 2.414062 3.921875 3.761719 6.523438 3.761719 5.742187 0 9.425781-6.253907 6.515625-11.292969l-11.394531-19.730469c-2.078126-3.601562-6.6875-4.835938-10.285157-2.757812zm0 0"/><path d="m458.902344 239.878906c21.375 12.339844 20.808594 12.402344 23.488281 12.402344 7.652344 0 10.441406-10.203125 3.773437-14.050781l-19.734374-11.394531c-3.601563-2.078126-8.207032-.84375-10.285157 2.757812s-.84375 8.207031 2.757813 10.285156zm0 0"/><path d="m473.671875 166.078125c0 4.15625 3.371094 7.527344 7.53125 7.527344h22.785156c4.15625 0 7.527344-3.371094 7.527344-7.527344s-3.371094-7.527344-7.527344-7.527344h-22.785156c-4.160156 0-7.53125 3.371094-7.53125 7.527344zm0 0"/><path d="m467.378906 105.0625 19.730469-11.390625c3.601563-2.082031 4.835937-6.683594 2.757813-10.285156-2.082032-3.601563-6.683594-4.832031-10.285157-2.757813l-19.730469 11.394532c-3.601562 2.078124-4.835937 6.683593-2.757812 10.285156 2.082031 3.601562 6.683594 4.835937 10.285156 2.753906zm0 0"/><path d="m414.609375 56.382812c2.601563 0 5.132813-1.351562 6.527344-3.765624l11.394531-19.734376c2.078125-3.601562.84375-8.203124-2.757812-10.285156-3.597657-2.078125-8.203126-.84375-10.28125 2.757813l-11.394532 19.730469c-2.910156 5.042968.773438 11.296874 6.511719 11.296874zm0 0"/></svg>