<?xml version="1.0" encoding="iso-8859-1"?>
<!-- Generator: Adobe Illustrator 19.0.0, SVG Export Plug-In . SVG Version: 6.00 Build 0)  -->
<svg version="1.1" id="Capa_1" xmlns="http://www.w3.org/2000/svg" xmlns:xlink="http://www.w3.org/1999/xlink" x="0px" y="0px"
	 viewBox="0 0 539.077 539.077" style="enable-background:new 0 0 539.077 539.077;" xml:space="preserve">
<g>
	<g>
		<path d="M269.538,539.077C120.917,539.077,0,418.171,0,269.538C0,120.917,120.917,0,269.538,0
			c148.632,0,269.538,120.917,269.538,269.538C539.077,418.171,418.171,539.077,269.538,539.077z M269.538,22.462
			C133.3,22.462,22.462,133.3,22.462,269.538S133.3,516.615,269.538,516.615s247.077-110.838,247.077-247.077
			S405.777,22.462,269.538,22.462z"/>
		<path d="M269.538,471.692c-99.081,0-179.692-80.611-179.692-179.692c0-6.208,5.023-11.231,11.231-11.231
			c6.208,0,11.231,5.023,11.231,11.231c0,86.688,70.532,157.231,157.231,157.231c86.688,0,157.231-70.543,157.231-157.231
			c0-6.208,5.023-11.231,11.231-11.231s11.231,5.023,11.231,11.231C449.231,391.081,368.619,471.692,269.538,471.692z
			 M415.538,235.846c-6.208,0-11.231-5.023-11.231-11.231c0-18.579-15.113-33.692-33.692-33.692
			c-18.579,0-33.692,15.113-33.692,33.692c0,6.208-5.023,11.231-11.231,11.231c-6.208,0-11.231-5.023-11.231-11.231
			c0-30.961,25.181-56.154,56.154-56.154s56.154,25.192,56.154,56.154C426.769,230.823,421.746,235.846,415.538,235.846z
			 M213.385,235.846c-6.208,0-11.231-5.023-11.231-11.231c0-18.579-15.113-33.692-33.692-33.692s-33.692,15.113-33.692,33.692
			c0,6.208-5.023,11.231-11.231,11.231s-11.231-5.023-11.231-11.231c0-30.961,25.192-56.154,56.154-56.154
			s56.154,25.192,56.154,56.154C224.615,230.823,219.592,235.846,213.385,235.846z"/>
	</g>
</g>
<g>
</g>
<g>
</g>
<g>
</g>
<g>
</g>
<g>
</g>
<g>
</g>
<g>
</g>
<g>
</g>
<g>
</g>
<g>
</g>
<g>
</g>
<g>
</g>
<g>
</g>
<g>
</g>
<g>
</g>
</svg>
