<svg height="448pt" viewBox="-80 0 448 448" width="448pt" xmlns="http://www.w3.org/2000/svg"><path d="m40 448v-246.832031l-23.664062-78.871094c-.21875-.746094-.332032-1.519531-.335938-2.296875v-120h-16v118.832031l23.664062 78.871094c.21875.746094.332032 1.519531.335938 2.296875v248zm0 0"/><path d="m287.648438 400-15.304688-352h-105.023438c-4.285156-.003906-7.8125 3.367188-8 7.648438l-14.96875 344.351562zm0 0"/><path d="m184 0h64v32h-64zm0 0"/><path d="m144 416h144v32h-144zm0 0"/><path d="m72 16h-32c-4.417969 0-8-3.582031-8-8s3.582031-8 8-8h32c4.417969 0 8 3.582031 8 8s-3.582031 8-8 8zm0 0"/><path d="m72 40-32-.039062c-4.417969 0-8-3.582032-8-8 0-4.417969 3.582031-8 8-8h32c4.417969 0 8 3.582031 8 8 0 4.417968-3.582031 8-8 8zm0 0"/><path d="m72 64h-32c-4.417969 0-8-3.582031-8-8s3.582031-8 8-8h32c4.417969 0 8 3.582031 8 8s-3.582031 8-8 8zm0 0"/><path d="m72 88h-32c-4.417969 0-8-3.582031-8-8s3.582031-8 8-8h32c4.417969 0 8 3.582031 8 8s-3.582031 8-8 8zm0 0"/><path d="m72 112h-32c-4.417969 0-8-3.582031-8-8s3.582031-8 8-8h32c4.417969 0 8 3.582031 8 8s-3.582031 8-8 8zm0 0"/></svg>