<?xml version="1.0" encoding="iso-8859-1"?>
<!-- Generator: Adobe Illustrator 19.0.0, SVG Export Plug-In . SVG Version: 6.00 Build 0)  -->
<svg version="1.1" id="Layer_1" xmlns="http://www.w3.org/2000/svg" xmlns:xlink="http://www.w3.org/1999/xlink" x="0px" y="0px"
	 viewBox="0 0 512 512" style="enable-background:new 0 0 512 512;" xml:space="preserve">
<g>
	<g>
		<g>
			<path d="M491.779,150.646C491.756,150.591,491.756,150.591,491.779,150.646L491.779,150.646z"/>
			<path d="M493.024,153.494c0.297,0.68,0.421,0.963-0.002-0.005c-0.82-1.877-1.167-2.67-1.243-2.844
				c0.126,0.289,0.839,1.92,1.241,2.839c-3.459-7.91-8.947-11.056-14.758-14.387C405.45,97.372,359.151,53.593,354.41,21.988
				C352.529,9.452,341.392,0,328.502,0h-58.92c-4.329,0-7.837,3.509-7.837,7.837c0,4.328,3.508,7.837,7.837,7.837h58.92
				c5.195,0,9.669,3.715,10.408,8.64c3.444,22.958,22.398,49.013,54.858,76.218c-4.032,7.235-8.307,14.364-12.815,21.378
				c-3.573-1.384-7.45-2.151-11.505-2.151c-17.616,0-31.948,14.332-31.948,31.948c0,7.229,2.417,13.902,6.48,19.262
				c-3.81,4.344-7.72,8.619-11.721,12.824c-4.752-2.808-10.288-4.427-16.197-4.427c-17.616,0-31.949,14.332-31.949,31.948
				c0,4.896,1.111,9.536,3.087,13.688c-7.327,5.824-14.857,11.444-22.589,16.831c-2.694-0.557-5.483-0.851-8.338-0.851
				c-2.857,0-5.648,0.295-8.342,0.852c-7.526-5.245-14.855-10.707-21.992-16.359c2.121-4.271,3.321-9.077,3.321-14.16
				c0-5.444-1.396-10.823-4.036-15.554c-2.111-3.78-6.882-5.133-10.662-3.024c-3.779,2.11-5.133,6.883-3.024,10.662
				c1.341,2.401,2.049,5.139,2.049,7.915c0,8.974-7.301,16.274-16.274,16.274s-16.274-7.301-16.274-16.274
				s7.301-16.274,16.274-16.274c4.328,0,7.837-3.509,7.837-7.837s-3.509-7.837-7.837-7.837c-6.139,0-11.876,1.744-16.75,4.757
				c-4.102-4.307-8.104-8.69-12.004-13.143c4.07-5.361,6.49-12.039,6.49-19.274c0-17.616-14.332-31.948-31.948-31.948
				c-4.07,0-7.959,0.773-11.542,2.166c-5.693-8.86-10.997-17.914-15.923-27.13c27.755-26.258,43.391-49.967,46.469-70.482
				c0.739-4.925,5.212-8.639,10.407-8.639h65.723c4.329,0,7.837-3.509,7.837-7.837c0-4.328-3.508-7.836-7.837-7.836H172.51
				c-12.891,0-24.028,9.453-25.907,21.989C142.19,51.41,101.128,93.857,33.946,138.445c-7.639,5.069-11.846,7.861-14.977,15.042
				c-1.437,3.296-2.15,6.783-2.119,10.367c0.8,91.263,24.784,177.229,67.532,242.064C129.488,474.326,190.435,512,255.999,512
				c65.559,0,126.505-37.672,171.613-106.076c17.913-27.166,32.632-58.156,43.747-92.106c1.347-4.113-0.895-8.539-5.009-9.886
				c-4.115-1.345-8.54,0.896-9.887,5.009c-10.682,32.625-24.791,62.351-41.937,88.354c-42.11,63.86-98.409,99.03-158.527,99.03
				c-60.121,0-116.423-35.172-158.532-99.036c-41.106-62.343-64.17-145.294-64.944-233.573c-0.013-1.367,0.261-2.7,0.813-3.965
				c1.212-2.779,2.186-3.543,9.276-8.247c16.695-11.08,39.771-27.406,61.038-45.872c4.717,8.616,9.765,17.086,15.125,25.396
				c-4.748,5.578-7.622,12.796-7.622,20.677c0,17.616,14.332,31.948,31.948,31.948c4.712,0,9.186-1.033,13.216-2.873
				c4.323,4.95,8.765,9.817,13.327,14.593c-2.716,4.695-4.279,10.137-4.279,15.94c0,17.616,14.332,31.948,31.948,31.948
				c6.862,0,13.219-2.182,18.432-5.878c5.143,4.084,10.386,8.067,15.725,11.951c-9.904,7.515-16.313,19.405-16.313,32.767
				c0,13.329,6.378,25.19,16.24,32.709c-25.466,24.058-40.43,55.991-39.986,87.142c0.037,2.736,0.3,5.494,0.559,8.215
				c0.31,3.261,0.599,6.699,1.569,9.846c7.511,29.443,33.275,49.986,62.737,49.986c29.818,0,55.703-20.899,62.946-50.824
				c0.866-3.492,1.212-7.12,1.51-10.698c0.18-2.16,0.41-4.356,0.41-6.526c0.148-10.292-1.373-20.786-4.519-31.189
				c-1.253-4.143-5.626-6.489-9.77-5.233c-4.143,1.253-6.486,5.627-5.233,9.77c2.679,8.86,3.975,17.751,3.85,26.323
				c-0.136,4.856-0.796,9.606-1.607,14.377c-5.702,22.594-25.197,38.326-47.587,38.326c-22.347,0-41.92-15.78-47.598-38.374
				c-1.163-4.651-1.457-9.652-1.598-14.432c-0.333-28.519,14.596-57.994,39.642-79.433c3.068,0.734,6.264,1.133,9.555,1.133
				c3.286,0,6.479-0.398,9.545-1.131c10.143,8.693,18.806,18.85,25.397,29.879c2.22,3.715,7.031,4.929,10.747,2.708
				s4.928-7.031,2.708-10.747c-6.31-10.563-14.304-20.389-23.535-29.106c9.87-7.518,16.258-19.387,16.258-32.723
				c0-13.363-6.411-25.254-16.316-32.77c5.473-3.978,10.851-8.061,16.122-12.256c5.291,3.885,11.814,6.186,18.866,6.186
				c17.615,0,31.947-14.332,31.947-31.948c0-6.036-1.683-11.686-4.604-16.506c4.378-4.598,8.652-9.276,12.811-14.033
				c4.034,1.843,8.513,2.88,13.231,2.88c17.616,0,31.948-14.332,31.948-31.948c0-7.894-2.884-15.123-7.644-20.704
				c4.349-6.74,8.486-13.587,12.413-20.527c18.109,13.923,39.63,28.083,64.304,42.223c5.284,3.028,6.866,4.036,8.191,7.068
				c0.552,1.264,0.826,2.601,0.814,3.97c-0.351,39.805-5.206,78.644-14.429,115.438c-1.053,4.198,1.497,8.454,5.696,9.508
				c0.64,0.16,1.28,0.237,1.911,0.237c3.509,0,6.703-2.375,7.594-5.933c9.525-37.994,14.538-78.069,14.901-119.112
				C495.178,160.284,494.465,156.792,493.024,153.494z M143.099,167.979c-8.974,0-16.274-7.301-16.274-16.274
				s7.301-16.274,16.274-16.274s16.274,7.301,16.274,16.274S152.073,167.979,143.099,167.979z M281.72,282.099
				c0,14.031-11.415,25.445-25.446,25.445c-14.031,0-25.446-11.414-25.446-25.445c0-14.031,11.416-25.445,25.446-25.445
				C270.304,256.654,281.72,268.069,281.72,282.099z M316.064,227.587c-8.975,0-16.275-7.301-16.275-16.274
				s7.301-16.274,16.275-16.274c8.974,0,16.273,7.301,16.273,16.274C332.338,220.286,325.037,227.587,316.064,227.587z
				 M369.448,167.979c-8.974,0-16.274-7.301-16.274-16.274s7.301-16.274,16.274-16.274c8.974,0,16.274,7.301,16.274,16.274
				C385.723,160.678,378.422,167.979,369.448,167.979z"/>
		</g>
	</g>
</g>
<g>
	<g>
		<path d="M256.274,362.432c-22.673,0-41.12,18.446-41.12,41.12c0,22.673,18.446,41.119,41.12,41.119
			c22.674,0,41.12-18.446,41.12-41.119C297.393,380.879,278.948,362.432,256.274,362.432z M256.274,428.997
			c-14.031,0-25.446-11.414-25.446-25.445s11.416-25.446,25.446-25.446c14.031,0,25.446,11.414,25.446,25.446
			C281.72,417.583,270.304,428.997,256.274,428.997z"/>
	</g>
</g>
<g>
</g>
<g>
</g>
<g>
</g>
<g>
</g>
<g>
</g>
<g>
</g>
<g>
</g>
<g>
</g>
<g>
</g>
<g>
</g>
<g>
</g>
<g>
</g>
<g>
</g>
<g>
</g>
<g>
</g>
</svg>
