<svg id="Layer_35" enable-background="new 0 0 64 64" height="512" viewBox="0 0 64 64" width="512" xmlns="http://www.w3.org/2000/svg"><path d="m44 42-4-8h-1-1l-4 8h-27v18h7.65c-.66-.57-1.22-1.25-1.65-2l5-1 2-3-2-3-5-1c1.38-2.39 4.04-4 7-4s5.54 1.61 6.92 4h12.08 8.08c1.38-2.39 3.96-4 6.92-4 1.05 0 2.07.2 3 .57v-4.57z" fill="#ccd1d9"/><path d="m57.93 35.87 3.07 6.13h-4-13l-4-8h8 9z" fill="#aab2bd"/><path d="m35.95 34h2.05l-4 8h-27-4l4-8h5 16z" fill="#aab2bd"/><path d="m61 50-5 1-2 3 2 3 5 1c-1.38 2.39-4.04 4-7 4s-5.54-1.61-6.92-4h-20.16c-1.38 2.39-3.96 4-6.92 4-2.03 0-3.91-.75-5.34-2h-.01c-.66-.57-1.22-1.25-1.65-2l5-1 2-3-2-3-5-1c1.38-2.39 4.04-4 7-4s5.54 1.61 6.92 4h12.08 8.08c1.38-2.39 3.96-4 6.92-4 1.05 0 2.07.2 3 .57 1.69.68 3.11 1.89 4 3.43z" fill="#fcd770"/><path d="m38.2 16-2.22 2.22 1.37 2.27c-.09.17-.17.34-.25.51h-8.1c-.55 0-1 .45-1 1v12h-16v-12c0-.55-.45-1-1-1h-5c-2.21 0-4-1.79-4-4v-12.5c0-.69.28-1.32.73-1.77s1.08-.73 1.77-.73c1.38 0 2.5 1.12 2.5 2.5v10.5c0 .55.45 1 1 1h10.71l-.71 10 2 2 2-2-.71-10z" fill="#b4dd7f"/><path d="m21.29 16 .71 10-2 2-2-2 .71-10h1.29z" fill="#ff826e"/><circle cx="20" cy="10" fill="#f0d0b4" r="6"/><path d="m48 18c4.42 0 8 3.58 8 8s-3.58 8-8 8-8-3.58-8-8 3.58-8 8-8zm4 8c0-2.21-1.79-4-4-4s-4 1.79-4 4 1.79 4 4 4 4-1.79 4-4z" fill="#fcd770"/><path d="m58.65 31.51 1.37 2.27-2.09 2.09-.93-1.87h-9c4.42 0 8-3.58 8-8s-3.58-8-8-8-8 3.58-8 8 3.58 8 8 8h-8-1-1-2.05l1.4-2.49c-.31-.6-.58-1.22-.79-1.88l-2.56-.63v-6l2.56-.63c.15-.47.33-.93.54-1.37.08-.17.16-.34.25-.51l-1.37-2.27 2.22-2.22 2.02-2.02 2.27 1.37c.6-.31 1.22-.58 1.88-.79l.63-2.56h6l.63 2.56c.66.21 1.28.48 1.88.79l2.27-1.37 4.24 4.24-1.37 2.27c.31.6.58 1.22.79 1.88l2.56.63v6l-2.56.63c-.21.66-.48 1.28-.79 1.88z" fill="#ffc729"/><path d="m63 29.784v-7.568l-2.794-.687c-.123-.333-.262-.665-.417-.995l1.493-2.465-5.352-5.352-2.466 1.492c-.331-.154-.663-.293-.995-.416l-.685-2.793h-7.568l-.687 2.794c-.332.123-.664.262-.995.416l-2.466-1.492-2.281 2.282h-12.898c1.301-1.272 2.111-3.042 2.111-5 0-3.859-3.14-7-7-7s-7 3.141-7 7c0 1.958.81 3.728 2.111 5h-7.111v-10.5c0-1.93-1.57-3.5-3.5-3.5s-3.5 1.57-3.5 3.5v12.5c0 2.757 2.243 5 5 5h5v11h-4.618l-5 10h4.618v18h8.308c1.589 1.266 3.589 2 5.692 2 2.999 0 5.812-1.519 7.475-4h19.05c1.664 2.481 4.476 4 7.475 4 3.244 0 6.258-1.724 7.865-4.499l.7-1.208-5.963-1.192-1.4-2.101 1.4-2.101 5.963-1.192-.7-1.208c-.908-1.567-2.272-2.782-3.865-3.558v-2.941h4.618l-3.468-6.937 2.133-2.133-1.493-2.465c.154-.33.293-.662.417-.995zm-27.206.687c.125.339.267.677.425 1.013l-.855 1.516h-6.364v-11h4.878l-.878.216v7.568zm-14.824-4.855-.97.97-.97-.97.616-8.616h.709zm-5.97-15.616c0-2.757 2.243-5 5-5s5 2.243 5 5-2.243 5-5 5-5-2.243-5-5zm-4 10h-5c-1.654 0-3-1.346-3-3v-12.5c0-.827.673-1.5 1.5-1.5s1.5.673 1.5 1.5v10.5c0 1.103.897 2 2 2h9.64l-.67 9.384 3.03 3.03 3.03-3.03-.67-9.384h13.427l-1.069 1.069 1.168 1.931h-6.886c-1.103 0-2 .897-2 2v11h-14v-11c0-1.103-.897-2-2-2zm-3.382 15h28.764l-3 6h-28.764zm.382 8h26.618l3.382-6.764v12.764h-10.525c-1.664-2.481-4.476-4-7.475-4-3.244 0-6.258 1.724-7.865 4.499l-.7 1.208 5.963 1.192 1.4 2.101-1.4 2.101-5.963 1.192.7 1.208c.101.175.224.333.336.499h-4.471zm47.398 7.101-2.6 3.899 2.6 3.899 3.877.775c-1.324 1.461-3.241 2.326-5.275 2.326-2.484 0-4.805-1.342-6.056-3.501l-.289-.499h-21.31l-.289.499c-1.251 2.159-3.572 3.501-6.056 3.501-2.034 0-3.951-.865-5.275-2.325l3.877-.775 2.6-3.899-2.6-3.899-3.877-.775c1.324-1.462 3.241-2.327 5.275-2.327 2.484 0 4.805 1.342 6.056 3.501l.289.499h21.311l.289-.499c1.25-2.159 3.571-3.501 6.055-3.501 2.034 0 3.951.865 5.275 2.325zm.602-4.862c-.651-.147-1.318-.239-2-.239-2.999 0-5.812 1.519-7.475 4h-6.525v-12.764l3.382 6.764h12.618zm-11.382-4.239-3-6h14.764l3 6zm-3.618-15c0-3.859 3.14-7 7-7s7 3.141 7 7-3.14 7-7 7-7-3.141-7-7zm17.759 7.626-.552.552-.589-1.178h-3.974c2.044-1.651 3.356-4.174 3.356-7 0-4.963-4.038-9-9-9s-9 4.037-9 9c0 2.826 1.312 5.349 3.356 7h-4.696l.826-1.466-.249-.479c-.297-.572-.54-1.153-.722-1.728l-.17-.534-2.345-.577v-4.432l2.345-.577.17-.534c.182-.572.425-1.153.722-1.728l.258-.498-1.255-2.073 3.134-3.133 2.073 1.255.499-.259c.574-.298 1.154-.541 1.725-.722l.536-.169.577-2.346h4.432l.577 2.347.536.169c.571.181 1.151.424 1.725.722l.499.259 2.073-1.255 3.134 3.133-1.255 2.074.259.498c.296.571.539 1.152.722 1.727l.17.534 2.344.576v4.432l-2.345.577-.17.534c-.183.574-.425 1.155-.722 1.727l-.259.498z"/><path d="m48 21c-2.757 0-5 2.243-5 5s2.243 5 5 5 5-2.243 5-5-2.243-5-5-5zm0 8c-1.654 0-3-1.346-3-3s1.346-3 3-3 3 1.346 3 3-1.346 3-3 3z"/><path d="m54 37h2v2h-2z"/><path d="m50 37h2v2h-2z"/><path d="m46 37h2v2h-2z"/><path d="m46 53h2v2h-2z"/><path d="m42 53h2v2h-2z"/><path d="m38 53h2v2h-2z"/></svg>