<?xml version="1.0" encoding="iso-8859-1"?>
<!-- Generator: Adobe Illustrator 16.0.0, SVG Export Plug-In . SVG Version: 6.00 Build 0)  -->
<!DOCTYPE svg PUBLIC "-//W3C//DTD SVG 1.1//EN" "http://www.w3.org/Graphics/SVG/1.1/DTD/svg11.dtd">
<svg version="1.1" id="Capa_1" xmlns="http://www.w3.org/2000/svg" xmlns:xlink="http://www.w3.org/1999/xlink" x="0px" y="0px"
	 width="33.943px" height="33.943px" viewBox="0 0 33.943 33.943" style="enable-background:new 0 0 33.943 33.943;"
	 xml:space="preserve">
<g>
	<path d="M23.921,5.716c-0.439-0.533-1.808-2.203-1.932-2.354c-0.124-0.152-0.252-1.115-0.424-1.131
		C21.394,2.216,20.08,1.93,19.87,1.885s-0.281,0.158-0.281,0.158L19.18,1.917l0.095-1.24c0,0-0.016-0.346-1.318-0.597
		c-1.304-0.251-1.57,0.173-1.57,0.173L16.04,1.414c0,0-1.443-0.047-1.475,0.22c-0.032,0.268,1.271,0.612,1.271,0.612v0.645
		l0.267,0.266l0.256,0.905l-0.235,0.206c0,0-0.209-0.105-0.319,0.02s-0.454,0.593-0.587,0.771c-0.133,0.179-1.709,0.564-2.554,0.845
		c-0.846,0.279-1.081,1.854-1.432,1.844c-0.351-0.011-2.052,2.286-2.153,2.773c-0.103,0.488,1.75,3.249,1.75,3.249
		s1.24,1.334,1.507,1.413c0.268,0.078,0.863,0.172,0.863,0.172s0.424,0.282,0.33,0.377c-0.095,0.094-0.88,2.606-0.958,3.501
		c-0.077,0.896-0.329,3.359-0.492,3.914c-0.164,0.555-0.717,3.58-0.857,4.248c-0.142,0.669,0.361,1.304,0.361,1.304
		s0.031,1.867-0.188,2.731c-0.22,0.862-0.942,1.398-1.225,1.646c-0.282,0.249-0.142,0.849-0.142,0.849s2.041,0.126,2.167-0.282
		c0.125-0.407,0.267-0.659,0.471-0.565c0.204,0.096,0.55-0.078,0.644-0.267c0.095-0.188-0.252-1.522-0.22-1.854
		c0.031-0.328,0.365-1.822,0.424-2.118c0.059-0.295,0.267-0.095,0.377-0.425c0.11-0.328,2.684-9.982,2.684-9.982
		s-0.272,8.916-0.282,9.229c-0.01,0.314,0.267,0.204,0.249,0.518c-0.017,0.313-0.095,0.863-0.092,1.115
		c0.002,0.251-0.283,0.58-0.157,0.815c0.126,0.236-0.116,1.717,0.119,1.857c0.067,0.041,0.208,0.15,0.374,0.286
		c0.078,0.063-0.091,0.485-0.007,0.557c0.355,0.3,0.672,0.253,0.974,0.267c0.302,0.016,0.906-0.143,0.859-0.551
		c-0.047-0.407-0.543-1.428-0.718-1.804c-0.176-0.376-0.005-0.884,0.047-1.083c0.052-0.199,0.283-0.307,0.314-0.534
		c0.029-0.229,0.07-0.58,0.062-0.69c-0.01-0.109,0.502,0.063,0.519-0.141s1.507-12.449,1.46-13.045
		c-0.048-0.596-0.278-1.079-0.396-1.363c-0.116-0.285-0.218-1.604-0.218-1.604s1.006-0.287,1.317-0.377
		c0.313-0.09,0.235-2.92,0.235-2.92s1.696,0.125,2.12,0S24.8,8.51,24.863,8.023C24.926,7.537,24.36,6.249,23.921,5.716z
		 M13.811,14.082c-0.33,0.063-0.848-0.142-0.848-0.142s-0.659-0.643-0.754-0.91c-0.094-0.267-0.029-0.832-0.219-1.177
		c-0.189-0.346-0.612-0.707-0.612-0.707s0.079-0.706,0-0.848c-0.079-0.141,1.255-0.815,1.491-0.753
		c0.235,0.062,0.706,2.998,0.706,2.998l0.235,0.078C13.811,12.622,13.78,13.345,13.811,14.082z M15.884,4.459
		c0,0,0.077,0.376,0.203,0.737s1.115,0.66,1.115,0.66s0.483-0.231,0.597-0.393c0.114-0.162,0.431-0.612,0.431-0.612
		s0.103,0.44,0.197,0.754c0.094,0.313,0,4.614,0,4.614s-0.661,0.111-1.257,0.142c-0.596,0.031-1.49-0.142-1.49-0.142
		s-0.142-3.688-0.142-4.426C15.538,5.057,15.884,4.459,15.884,4.459z M17.375,13.738c-0.848,0.078-2.088,0.486-2.261,0.486
		s-0.241-0.321-0.535-0.308C14.284,13.929,14,13.94,14,13.94v-1.162l1.791-0.118l0.03-1.813h2.841l0.533,1.587l0.269-0.018
		l0.202,1.271C19.666,13.689,18.224,13.659,17.375,13.738z M21.473,6.045c-0.158-0.063-0.408-0.785-0.707-0.863
		s-0.55,0.064-0.863,0.135c-0.312,0.069-1.225-0.166-1.225-0.166s-0.66-0.565-0.377-0.676c0.281-0.109,0.863-1.584,0.863-1.584
		h0.896c0,0,0.342,0.713,0.486,0.829c0.144,0.116,0.313,0.254,0.313,0.254s-0.021,0.249,0.063,0.392
		c0.084,0.142,1.066,1.821,1.066,1.821S21.63,6.109,21.473,6.045z"/>
</g>
<g>
</g>
<g>
</g>
<g>
</g>
<g>
</g>
<g>
</g>
<g>
</g>
<g>
</g>
<g>
</g>
<g>
</g>
<g>
</g>
<g>
</g>
<g>
</g>
<g>
</g>
<g>
</g>
<g>
</g>
</svg>
