<?xml version="1.0" ?><!DOCTYPE svg  PUBLIC '-//W3C//DTD SVG 1.1//EN'  'http://www.w3.org/Graphics/SVG/1.1/DTD/svg11.dtd'><svg height="6.82666in" style="shape-rendering:geometricPrecision; text-rendering:geometricPrecision; image-rendering:optimizeQuality; fill-rule:evenodd; clip-rule:evenodd" viewBox="0 0 6.82666 6.82666" width="6.82666in" xml:space="preserve" xmlns="http://www.w3.org/2000/svg" xmlns:xlink="http://www.w3.org/1999/xlink"><defs><style type="text/css">
   <![CDATA[
    .fil1 {fill:none}
    .fil0 {fill:black;fill-rule:nonzero}
   ]]>
  </style></defs><g id="Layer_x0020_1"><path class="fil0" d="M2.02606 0.853331l2.77453 0c0.121335,0 0.231587,0.0495827 0.311457,0.129453 0.0798701,0.0798701 0.129453,0.190122 0.129453,0.311457l0 4.23818c0,0.121335 -0.0495827,0.231587 -0.129453,0.311461 -0.0798701,0.0798701 -0.190122,0.129453 -0.311457,0.129453l-2.77453 0c-0.121335,0 -0.231587,-0.0495827 -0.311457,-0.129453 -0.0798701,-0.079874 -0.129453,-0.190126 -0.129453,-0.311461l0 -4.23818c0,-0.121335 0.0495827,-0.231587 0.129453,-0.311457 0.0798701,-0.0798701 0.190122,-0.129453 0.311457,-0.129453zm0.158098 4.23876c-0.0221063,0 -0.0400039,0.0178976 -0.0400039,0.0400039 0,0.0221063 0.0178976,0.0400039 0.0400039,0.0400039l2.45833 0c0.0221063,0 0.0400039,-0.0178976 0.0400039,-0.0400039 0,-0.0221063 -0.0178976,-0.0400039 -0.0400039,-0.0400039l-2.45833 0zm0 -0.687504c-0.0221063,0 -0.0400039,0.0178976 -0.0400039,0.0400039 0,0.0221063 0.0178976,0.0400039 0.0400039,0.0400039l2.45833 0c0.0221063,0 0.0400039,-0.0178976 0.0400039,-0.0400039 0,-0.0221063 -0.0178976,-0.0400039 -0.0400039,-0.0400039l-2.45833 0zm0 -0.687504c-0.0221063,0 -0.0400039,0.0178976 -0.0400039,0.0400039 0,0.0221063 0.0178976,0.0400039 0.0400039,0.0400039l2.45833 0c0.0221063,0 0.0400039,-0.0178976 0.0400039,-0.0400039 0,-0.0221063 -0.0178976,-0.0400039 -0.0400039,-0.0400039l-2.45833 0zm0 -0.687504c-0.0221063,0 -0.0400039,0.0178976 -0.0400039,0.0400039 0,0.0221063 0.0178976,0.0400039 0.0400039,0.0400039l2.45833 0c0.0221063,0 0.0400039,-0.0178976 0.0400039,-0.0400039 0,-0.0221063 -0.0178976,-0.0400039 -0.0400039,-0.0400039l-2.45833 0zm0 -0.687504c-0.0221063,0 -0.0400039,0.0178976 -0.0400039,0.0400039 0,0.0221063 0.0178976,0.0400039 0.0400039,0.0400039l2.45833 0c0.0221063,0 0.0400039,-0.0178976 0.0400039,-0.0400039 0,-0.0221063 -0.0178976,-0.0400039 -0.0400039,-0.0400039l-2.45833 0zm0 -0.687504c-0.0221063,0 -0.0400039,0.0178976 -0.0400039,0.0400039 0,0.0221063 0.0178976,0.0400039 0.0400039,0.0400039l2.45833 0c0.0221063,0 0.0400039,-0.0178976 0.0400039,-0.0400039 0,-0.0221063 -0.0178976,-0.0400039 -0.0400039,-0.0400039l-2.45833 0z"/></g><rect class="fil1" height="6.82666" width="6.82666"/></svg>