<svg height="512" viewBox="0 0 512 512" width="512" xmlns="http://www.w3.org/2000/svg"><g id="Fill_out_line" data-name="Fill out line"><path d="m376 128-176-96-176 96v360h352z" fill="#e6e6e6"/><path d="m376 128h112v360h-112z" fill="#b3b3b3"/><path d="m56 152h288v336h-288z" fill="#b3b3b3"/><path d="m488 128-176-96h-112l176 96z" fill="#ccc"/><path d="m88 424h64v64h-64z" fill="#fc7"/><path d="m152 424h48v64h-48z" fill="#fcb73f"/><path d="m88 360h64v64h-64z" fill="#ff6f35"/><path d="m152 360h48v64h-48z" fill="#e05e1d"/><path d="m88 296h64v64h-64z" fill="#fc7"/><path d="m152 296h48v64h-48z" fill="#fcb73f"/><g fill="#808080"><circle cx="256" cy="472" r="16"/><circle cx="320" cy="472" r="16"/><circle cx="400" cy="472" r="16"/></g><path d="m352 392h48v64h-48z" fill="#e05e1d"/><path d="m240 392h64v64h-64z" fill="#fc7"/><path d="m304 392h48v64h-48z" fill="#fcb73f"/><path d="m400 424a16 16 0 0 1 16 16v16a0 0 0 0 1 0 0h-32a0 0 0 0 1 0 0v-16a16 16 0 0 1 16-16z" fill="#2b7cd4"/><path d="m288 328h64v64h-64z" fill="#fc7"/><path d="m352 328h48v64h-48z" fill="#fcb73f"/><path d="m56 152h288v32h-288z" fill="#3ea7ff"/><path d="m56 184h288v32h-288z" fill="#2b7cd4"/><path d="m56 216h288v32h-288z" fill="#104f91"/><path d="m491.79541 120.957-175.96436-95.98044a8.00561 8.00561 0 0 0 -3.83105-.97656h-112a7.98255 7.98255 0 0 0 -3.83081.97681l-.00024-.00025-176 96a8.00011 8.00011 0 0 0 -4.16895 7.02344v360a8.00039 8.00039 0 0 0 8 8h192v-16h-8v-184a8.00039 8.00039 0 0 0 -8-8h-112a8.00039 8.00039 0 0 0 -8 8v184h-16v-224h272v48h16v-152a8.00039 8.00039 0 0 0 -8-8h-288a8.00039 8.00039 0 0 0 -8 8v328h-16v-347.251l168-91.636 168 91.63647v139.25053h16v-136h96v344h-40v16h48a8.00039 8.00039 0 0 0 8-8v-360a7.99871 7.99871 0 0 0 -4.20459-7.043zm-427.79541 119.043v-16h272v16zm0-32v-16h272v16zm272-48v16h-272v-16zm-176 208h32v48h-32zm-16 48h-48v-48h48zm16 64v-48h32v48zm32-128h-32v-48h32zm-48-48v48h-48v-48zm-48 128h48v48h-48zm282.04053-312-146.66748-80h78.58695l146.666 80z"/><path d="m424 440a24.03919 24.03919 0 0 0 -16-22.624v-54.37014l42.41113-48.46973a16.0001 16.0001 0 0 0 -12.04101-26.53613h-42.74024a15.99774 15.99774 0 0 0 -12.041 5.46484l-23.21925 26.53516h-72.36963a8.00039 8.00039 0 0 0 -8 8v56h-40a8.00039 8.00039 0 0 0 -8 8v56h-8v16h9.37622a23.99988 23.99988 0 1 0 45.2478 0h18.752a24 24 0 1 0 45.248 0h34.752a24 24 0 1 0 45.248 0h9.37598v-16h-8zm-32 8v-8a8 8 0 0 1 16 0v8zm-80 0v-48h32v48zm80-112v48h-32v-48zm-32 64h32v17.376a24.03919 24.03919 0 0 0 -16 22.624v8h-16zm35.62988-96 42.73633.00391-30.36621 34.70509v-10.709a8.00039 8.00039 0 0 0 -8-8h-18.36963zm-99.62988 32h48v48h-48zm-32 136a8 8 0 1 1 -8-8 8.00917 8.00917 0 0 1 8 8zm-16-24v-48h48v48zm80 24a8 8 0 1 1 -8-8 8.00917 8.00917 0 0 1 8 8zm72 8a8 8 0 1 1 8-8 8.00917 8.00917 0 0 1 -8 8z"/></g></svg>