<svg id="Layer_3" enable-background="new 0 0 64 64" height="512" viewBox="0 0 64 64" width="512" xmlns="http://www.w3.org/2000/svg"><path d="m60.969 20h.031v-14c0-.552-.448-1-1-1h-1v-4h-2v4h-1c-.552 0-1 .448-1 1v13h-2v-9c0-1.654-1.346-3-3-3h-36c-1.654 0-3 1.346-3 3v9h-5c-2.757 0-5 2.243-5 5v30c0 2.414 1.721 4.434 4 4.899v3.101c0 .552.448 1 1 1h8c.552 0 1-.448 1-1v-3h34v3c0 .552.448 1 1 1h8c.552 0 1-.448 1-1v-3.101c2.279-.465 4-2.484 4-4.899v-30c0-1.641-.806-3.088-2.031-4zm-3.969-13h2v12.101c-.323-.066-.658-.101-1-.101h-1zm-44 3c0-.551.449-1 1-1h36c.551 0 1 .449 1 1v9h-2v-7c0-.552-.448-1-1-1h-32c-.552 0-1 .448-1 1v7h-2zm34 9h-30v-6h30zm-34 42h-6v-2h6zm38 0v-2h6v2zm10-7c0 1.654-1.346 3-3 3h-52c-1.654 0-3-1.346-3-3v-30c0-1.654 1.346-3 3-3h52c1.654 0 3 1.346 3 3z"/><path d="m11 43c-3.309 0-6 2.691-6 6s2.691 6 6 6 6-2.691 6-6-2.691-6-6-6zm0 10c-2.206 0-4-1.794-4-4s1.794-4 4-4 4 1.794 4 4-1.794 4-4 4z"/><path d="m53 43c-3.309 0-6 2.691-6 6s2.691 6 6 6 6-2.691 6-6-2.691-6-6-6zm0 10c-2.206 0-4-1.794-4-4s1.794-4 4-4 4 1.794 4 4-1.794 4-4 4z"/><path d="m5 23h54v2h-54z"/><path d="m5 27h54v2h-54z"/><path d="m5 31h54v2h-54z"/><path d="m5 35h54v2h-54z"/><path d="m5 39h54v2h-54z"/><path d="m44 47h-24c-.552 0-1 .448-1 1v4c0 .552.448 1 1 1h24c.552 0 1-.448 1-1v-4c0-.552-.448-1-1-1zm-1 4h-22v-2h22z"/></svg>