<svg id="_x33_0_Gift" enable-background="new 0 0 64 64" height="512" viewBox="0 0 64 64" width="512" xmlns="http://www.w3.org/2000/svg"><path d="m55.884 43.117c-.73-5.747-3.481-10.119-5.943-13.983-1.862-2.922-3.497-5.494-3.862-8.079.123-.053.243-.098.368-.16 3.806-1.904 10.626-2.895 10.695-2.905l.858-.123v-4.867c0-1.844-.551-2.904-3.737-3.965l-9.263-2.526v-5.509h-4c-7.168 0-13 5.832-13 13v5c0 3.203.645 5.888 1.837 7.979l-.001.008.006.001c.692 1.211 1.563 2.226 2.611 3.013h-16.606l-1.635-9.807c-.211-1.271-1.3-2.194-2.588-2.194-1.447 0-2.624 1.177-2.624 2.624v9.376h-2v8h2.503c-1.361 3.756-1.49 8.671-1.5 13.576-1.442-1.108-2.845-2.479-4.222-4.201-.344-.43-.884-.581-1.371-.385-1.342.541-1.438 3.753-1.406 4.101 1.083 11.909 19.808 11.909 30.996 11.909 20.57 0 31-4.037 31-12 0-3.315-1.304-7.197-7.116-7.883zm.116-30.117v3.146c-2.027.339-7.149 1.312-10.447 2.96-2.987 1.492-4.498-1.24-4.658-1.553l-1.789.895c.665 1.33 2.432 3.265 5.036 3.099.484 2.946 2.249 5.736 4.114 8.663 2.292 3.598 4.846 7.659 5.595 12.799-3.24.08-5.851 2.733-5.851 5.991 0 1.915.902 3.624 2.304 4.723-2.138.546-5.596 1.302-9.88 1.79 4.307-6.019 5.117-12.113 2.314-17.513h3.262v-1c0-3.701-2.89-6.733-6.531-6.976-2.998-3.161-4.469-7.746-4.469-14.024 0-5.832 4.04-7.952 7.869-7.999l10.814 2.947c2.317.773 2.317 1.121 2.317 2.052zm-30.782 25h15.221c3.331 5.389 2.39 11.51-2.729 17.773-1.802.141-3.715.227-5.71.227-1.023 0-2.024.007-3.005.015-4.459.032-8.393.053-11.983-.586.122-8.958 3.092-15.281 8.206-17.429zm14.641-31.606c-.437.117-.851.265-1.252.431l-1.273-3.184c.604-.215 1.231-.377 1.878-.483zm-3.018 1.402c-.134.094-.271.184-.399.286l-2.882-2.161c.595-.549 1.249-1.033 1.954-1.441zm-1.815 1.724c-.272.349-.513.726-.733 1.12l-3.244-1.298c.323-.686.713-1.332 1.164-1.932zm-1.514 2.962c-.132.43-.249.87-.329 1.335l-3.141-.628c.05-.674.161-1.329.327-1.964zm-.505 3.339c0 .061-.007.118-.007.179 0 .618.03 1.203.057 1.792l-3.057-.612v-1.96zm.211 4.042c.069.641.156 1.265.261 1.869l-3.361-.56c-.066-.621-.105-1.27-.112-1.952zm.723 3.974c.177.66.378 1.297.607 1.907l-3.417-.57c-.262-.587-.478-1.225-.649-1.914zm9.059-17.837c-.4 0-.789.019-1.17.053l-.61-3.053h1.78zm-7.46 21.937c.341.636.714 1.241 1.125 1.813-1.659-.365-3.024-1.143-4.079-2.305zm-24.54-7.313c0-.344.28-.624.624-.624.307 0 .565.22.616.521l1.58 9.479h-2.82zm-2 11.376h30c2.415 0 4.435 1.721 4.899 4h-34.899zm2.667 6h9.739c-3.942 3.276-6.204 9.235-6.384 17.001-1.748-.46-3.412-1.138-5.022-2.085 0-5.494.028-11.133 1.667-14.916zm20.333 23c-10.505 0-28.087 0-29.004-10.091-.027-.293.029-.77.117-1.215 7.391 8.453 15.6 8.391 25.897 8.32.975-.007 1.972-.014 2.99-.014 11.809 0 20.623-2.823 21.288-3.042.233.027.471.042.712.042 2.206 0 4-1.794 4-4s-1.794-4-4-4h-1v2h1c1.103 0 2 .897 2 2s-.897 2-2 2c-2.206 0-4-1.794-4-4s1.794-4 4-4c4.776 0 7 1.906 7 6 0 6.542-10.028 10-29 10z"/><circle cx="43" cy="11" r="1"/></svg>